<?xml version="1.0" encoding="iso-8859-1"?>
<!-- Generator: Adobe Illustrator 19.0.0, SVG Export Plug-In . SVG Version: 6.00 Build 0)  -->
<svg version="1.1" id="Layer_1" xmlns="http://www.w3.org/2000/svg" xmlns:xlink="http://www.w3.org/1999/xlink" x="0px" y="0px"
	 viewBox="0 0 496 496" style="enable-background:new 0 0 496 496;" xml:space="preserve">
<path style="fill:#FCA12A;" d="M496,430.4c0,19.2-12.8,33.6-32,33.6H32c-19.2,0-32-13.6-32-33.6V135.2C0,116,12.8,104,32,104h432
	c19.2,0,32,12,32,31.2V430.4z"/>
<path style="fill:#E0861B;" d="M160,104h304c19.2,0,32,12,32,31.2V208"/>
<path style="fill:#FCA12A;" d="M160,64L160,64c0-17.6,16-32,33.6-32h108.8C320,32,336,46.4,336,64l0,0"/>
<g>
	<rect x="160" y="64" style="fill:#BC6C15;" width="24" height="40"/>
	<rect x="312" y="64" style="fill:#BC6C15;" width="24" height="40"/>
</g>
<rect y="264" style="fill:#C67217;" width="496" height="40"/>
<path style="fill:#E0861B;" d="M0,288v142.4c0,20,12.8,33.6,32,33.6h432c19.2,0,32-13.6,32-33.6V288H0z"/>
<path style="fill:#C67217;" d="M464,464c19.2,0,32-13.6,32-32.8V288H0"/>
<rect x="96" y="264" style="fill:#3AC2F2;" width="40" height="104"/>
<polyline style="fill:#009CC6;" points="96,264 136,264 136,368 "/>
<rect x="64" y="248" style="fill:#E0861B;" width="104" height="24"/>
<rect x="352" y="264" style="fill:#009CC6;" width="40" height="104"/>
<path style="fill:#EAEAEA;" d="M400,391.2c0,9.6-7.2,16.8-16.8,16.8h-22.4c-9.6,0-16.8-7.2-16.8-16.8v-22.4
	c0-9.6,7.2-16.8,16.8-16.8h22.4c9.6,0,16.8,7.2,16.8,16.8V391.2z"/>
<rect x="320" y="248" style="fill:#E0861B;" width="104" height="24"/>
<path style="fill:#C4C4C4;" d="M383.2,352c9.6,0,16.8,8,16.8,14.4v28c0,3.2-4.8,13.6-17.6,13.6"/>
<path style="fill:#EAEAEA;" d="M144,399.2c0,9.6-7.2,16.8-16.8,16.8h-22.4c-9.6,0-16.8-7.2-16.8-16.8v-22.4
	c0-9.6,7.2-16.8,16.8-16.8h22.4c9.6,0,16.8,7.2,16.8,16.8V399.2z"/>
<path style="fill:#C4C4C4;" d="M127.2,360c9.6,0,16.8,8,16.8,14.4v28c0,3.2-4.8,13.6-17.6,13.6"/>
<g>
</g>
<g>
</g>
<g>
</g>
<g>
</g>
<g>
</g>
<g>
</g>
<g>
</g>
<g>
</g>
<g>
</g>
<g>
</g>
<g>
</g>
<g>
</g>
<g>
</g>
<g>
</g>
<g>
</g>
</svg>
